<?xml version="1.0" encoding="iso-8859-1"?>
<!-- Generator: Adobe Illustrator 19.0.0, SVG Export Plug-In . SVG Version: 6.00 Build 0)  -->
<svg version="1.1" id="Layer_1" xmlns="http://www.w3.org/2000/svg" xmlns:xlink="http://www.w3.org/1999/xlink" x="0px" y="0px"
	 viewBox="0 0 485 485" style="enable-background:new 0 0 485 485;" xml:space="preserve">
<g>
	<g>
		<path style="fill:#C7CAC7;" d="M432.5,452.5c0,0,0,11,0,25h-80V372.8C432.2,403.5,432.5,452.5,432.5,452.5z"/>
		<polygon style="fill:#414042;" points="382.5,107.5 382.5,142.5 352.5,142.5 132.5,142.5 102.5,142.5 102.5,107.5 147.5,107.5 
			337.5,107.5 		"/>
		<path style="fill:#FFD7A3;" d="M352.5,167.5c16.6,0,30,6.2,30,20c0,12.8-15.8,27.6-31.3,29.7c0.9-6.4,1.3-13,1.3-19.7V167.5z"/>
		<path style="fill:#414042;" d="M352.5,372.8v104.7h-220V372.9c4.7-1.9,9.7-3.7,15-5.4c0,0,34.1-17.8,45-30c0,0,20.6,25,50,25
			s50-25,50-25c10.9,12.2,45,30,45,30C342.8,369.2,347.8,370.9,352.5,372.8z"/>
		<path style="fill:#FFE1B2;" d="M351.2,217.2c-5.4,39.1-26.6,71.9-58.7,88.5c-14.6,7.6-31.4,11.8-50,11.8s-35.4-4.2-50-11.8
			c-32.1-16.6-53.3-49.4-58.7-88.5c-0.9-6.4-1.3-13-1.3-19.7v-30v-25h220v25v30C352.5,204.2,352.1,210.8,351.2,217.2z"/>
		<rect x="147.5" y="72.5" style="fill:#C7CAC7;" width="190" height="35"/>
		<path style="fill:#58595B;" d="M337.5,37.5v35h-190v-35c0,0,9.4-30,40-30s55,0,55,0s24.4,0,55,0S337.5,37.5,337.5,37.5z"/>
		<path style="fill:#FFD7A3;" d="M292.5,305.7v31.8c0,0-20.6,25-50,25s-50-25-50-25v-31.8c14.6,7.6,31.4,11.8,50,11.8
			S277.9,313.3,292.5,305.7z"/>
		<path style="fill:#FFD7A3;" d="M132.5,197.5c0,6.7,0.4,13.3,1.3,19.7c-15.5-2.1-31.3-16.9-31.3-29.7c0-13.8,13.4-20,30-20V197.5z"
			/>
		<path style="fill:#C7CAC7;" d="M132.5,372.9v104.6h-80c0-14,0-25,0-25S53.3,403.8,132.5,372.9z"/>
	</g>
	<g>
		<path style="fill:#231F20;" d="M355.253,365.823c-5.147-2.077-10.565-3.888-14.842-5.266c-8.926-4.7-30.933-17.17-40.411-26.116
			v-24.3c30.386-17.373,51.165-48.544,57.804-86.697C375.018,218.516,390,202.361,390,187.5c0-15.044-11.308-25.026-30-27.094V150
			h30v-50h-45V36.353l-0.343-1.095C340.836,23.063,326.063,0,297.5,0h-110c-28.563,0-43.336,23.063-47.157,35.258L140,36.353V100H95
			v50h30v10.406c-18.692,2.068-30,12.051-30,27.094c0,14.861,14.982,31.017,32.196,35.946c6.646,38.167,27.428,69.336,57.804,86.697
			v24.299c-9.479,8.946-31.489,21.417-40.413,26.117c-5.229,1.692-10.234,3.503-14.813,5.354
			c-82.938,32.357-84.737,84.27-84.773,86.464L45,485h395v-32.546C439.986,450.245,438.705,397.994,355.253,365.823z M200,317.297
			c13.182,5.108,27.424,7.703,42.5,7.703c15.079,0,29.324-2.595,42.5-7.701v17.312C279.87,339.974,263.614,355,242.5,355
			c-20.977,0-37.346-15.055-42.5-20.404V317.297z M375,187.5c0,6.126-6.627,14.466-15.266,19.07
			c0.165-2.964,0.266-31.088,0.266-31.088C373.367,177.356,375,184.268,375,187.5z M187.5,15h110
			c22.063,0,30.735,19.179,32.5,23.787V65H155V38.791C156.788,34.126,165.468,15,187.5,15z M155,80h175v20H155V80z M110,115h265v20
			H110V115z M110,187.5c0-3.232,1.633-10.144,15-12.018c0,0,0.101,28.125,0.266,31.088C116.627,201.966,110,193.626,110,187.5z
			 M141.227,216.156C140.413,210.363,140,204.087,140,197.5V150h205v47.5c0,6.587-0.413,12.863-1.229,18.674
			c-5.158,37.347-25.102,67.549-54.733,82.874C275.075,306.315,259.418,310,242.5,310s-32.575-3.685-46.555-10.962
			C166.331,283.723,146.388,253.521,141.227,216.156z M149.791,374.642c0,0,28.468-14.884,42.455-26.603
			C200.892,356.18,219.027,370,242.5,370s41.608-13.82,50.254-21.961c13.987,11.719,42.455,26.603,42.455,26.603
			c2.853,0.915,6.299,2.049,9.791,3.321V470H140v-91.96C143.14,376.867,146.407,375.727,149.791,374.642z M60,452.638
			c0.045-0.828,0.802-11.533,9.758-25.309c13.328-20.5,35.78-34.34,55.242-43.14V470H60V452.638z M425,470h-65v-85.966
			c19.543,8.729,42.146,22.551,55.418,43.143c8.993,13.953,9.558,24.795,9.582,25.408V470z"/>
		<polygon style="fill:#231F20;" points="242.469,253.106 262.482,273.102 287.801,247.806 277.199,237.194 262.482,251.898 
			250,239.427 250,207.5 235,207.5 235,239.36 222.481,251.889 207.806,237.199 197.194,247.801 222.479,273.111 		"/>
		<rect x="232.5" y="440" style="fill:#231F20;" width="20" height="15"/>
		<rect x="232.5" y="410" style="fill:#231F20;" width="20" height="15"/>
	</g>
</g>
<g>
</g>
<g>
</g>
<g>
</g>
<g>
</g>
<g>
</g>
<g>
</g>
<g>
</g>
<g>
</g>
<g>
</g>
<g>
</g>
<g>
</g>
<g>
</g>
<g>
</g>
<g>
</g>
<g>
</g>
</svg>
