<?xml version="1.0" encoding="iso-8859-1"?>
<!-- Generator: Adobe Illustrator 19.0.0, SVG Export Plug-In . SVG Version: 6.00 Build 0)  -->
<svg version="1.1" id="Layer_1" xmlns="http://www.w3.org/2000/svg" xmlns:xlink="http://www.w3.org/1999/xlink" x="0px" y="0px"
	 viewBox="0 0 485 485" style="enable-background:new 0 0 485 485;" xml:space="preserve">
<g>
	<g>
		<polygon style="fill:#F4661E;" points="262.9,343.4 272.5,367.5 257.5,392.5 267.5,422.5 267.6,422.7 242.5,442.5 217.4,422.7 
			217.5,422.5 227.5,393.1 212.5,367.5 222.1,343.4 242.5,347.5 		"/>
		<path style="fill:#808285;" d="M337.5,367.5l-69.9,55.2l-0.1-0.2l-10-30l15-25l-9.6-24.1l29.6-5.9
			C303.4,349.7,337.5,367.5,337.5,367.5z"/>
		<path style="fill:#808285;" d="M227.5,393.1l-10,29.4l-0.1,0.2l-69.9-55.2c0,0,34.1-17.8,45-30l29.6,5.9l-9.6,24.1L227.5,393.1z"
			/>
		<path style="fill:#58595B;" d="M432.5,452.5c0,0,0,11,0,25h-380c0-14,0-25,0-25s0.9-54.7,95-85l69.9,55.2l25.1,19.8l25.1-19.8
			l69.9-55.2C432.2,397.5,432.5,452.5,432.5,452.5z"/>
		<path style="fill:#E7ECED;" d="M352.5,62.5v80c0,0-60-37.5-60-75c0,0-24.4,15-50,15s-50-15-50-15c0,37.5-60,75-60,75v-80
			c0,0,25.9-55,110-55S352.5,62.5,352.5,62.5z"/>
		<path style="fill:#FFD7A3;" d="M242.5,317.5c18.3,0,34.9-4.1,49.3-11.4c0.2-0.1,0.5-0.2,0.7-0.4v26.8v5l-29.6,5.9l-20.4,4.1
			l-20.4-4.1l-29.6-5.9v-5v-26.8c0.2,0.2,0.5,0.3,0.7,0.4C207.6,313.4,224.2,317.5,242.5,317.5z"/>
		<path style="fill:#FFD7A3;" d="M132.5,197.5c0,6.7,0.5,13.3,1.3,19.7c-15.5-2.1-31.3-16.9-31.3-29.7c0-13.8,13.4-20,30-20V197.5z"
			/>
		<path style="fill:#FFD7A3;" d="M352.5,167.5c16.6,0,30,6.2,30,20c0,12.8-15.8,27.6-31.3,29.7c0.8-6.4,1.3-13,1.3-19.7V167.5z"/>
		<path style="fill:#FFE1B2;" d="M133.8,217.2c-0.8-6.4-1.3-13-1.3-19.7v-30v-25c0,0,60-37.5,60-75c0,0,24.4,15,50,15s50-15,50-15
			c0,37.5,60,75,60,75v25v30c0,6.7-0.5,13.3-1.3,19.7v0.1c-5.4,39.1-26.6,71.8-58.7,88.4c-0.2,0.2-0.5,0.3-0.7,0.4
			c-14.4,7.3-31,11.4-49.3,11.4s-34.9-4.1-49.3-11.4c-0.2-0.1-0.5-0.2-0.7-0.4c-32.1-16.6-53.3-49.3-58.7-88.4L133.8,217.2
			L133.8,217.2z"/>
	</g>
	<g>
		<path style="fill:#231F20;" d="M340.4,360.552c-8.931-4.704-30.923-17.164-40.4-26.105v-24.298
			c30.418-17.386,51.203-48.561,57.822-86.708C375.028,218.505,390,202.356,390,187.5c0-15.043-11.308-25.026-30-27.094V60.822
			l-0.715-1.518c-0.294-0.625-7.415-15.472-25.529-30.134C317.315,15.863,288.138,0,242.5,0s-74.815,15.863-91.256,29.17
			c-18.114,14.662-25.235,29.509-25.529,30.134L125,60.822v99.583c-18.692,2.068-30,12.051-30,27.094
			c0,14.856,14.972,31.005,32.178,35.94c6.619,38.146,27.405,69.322,57.822,86.708v24.298c-9.483,8.947-31.496,21.416-40.416,26.114
			c-97.483,31.626-99.543,89.369-99.583,91.816L45,485h395v-32.541C439.986,449.996,438.544,391.89,340.4,360.552z M323.954,368.641
			l-52.644,41.573l-5.604-16.813l15.136-25.227l-7.64-19.18l16.83-3.355C298.853,353.809,313.869,362.923,323.954,368.641z
			 M220.824,366.871l5.924-14.872l15.752,3.151l15.724-3.16l5.934,14.836l-14.864,24.773l9.499,28.496L242.5,432.947l-16.267-12.832
			l9.472-27.848L220.824,366.871z M200,317.313c13.219,5.099,27.464,7.687,42.5,7.687c15.042,0,29.294-2.59,42.5-7.685v14.036
			l-42.5,8.499l-42.5-8.499V317.313z M375,187.5c0,6.131-6.637,14.479-15.286,19.081c0.185-3.085,0.286-31.099,0.286-31.099
			C373.367,177.356,375,184.268,375,187.5z M161.314,40.322C182.417,23.52,209.732,15,242.5,15s60.083,8.52,81.186,25.322
			C336.445,50.48,342.965,60.782,345,64.369v63.736c-5.103-3.831-11.348-8.853-17.543-14.677C309.494,96.543,300,80.662,300,67.5
			V54.085l-11.428,7.025C288.346,61.25,265.71,75,242.5,75c-23.087,0-45.853-13.755-46.072-13.889L185,54.085V67.5
			c0,13.162-9.494,29.043-27.457,45.928c-6.195,5.824-12.44,10.846-17.543,14.677V64.371
			C142.05,60.758,148.569,50.469,161.314,40.322z M110,187.5c0-3.232,1.633-10.144,15-12.018c0,0,0.102,28.014,0.286,31.099
			C116.637,201.979,110,193.631,110,187.5z M141.3,216.777l-0.058-0.507c-0.836-6.688-1.242-12.827-1.242-18.77v-50.947
			c12.007-8.095,50.317-35.997,58.466-67.469C208.557,83.797,225.137,90,242.5,90s33.943-6.203,44.034-10.916
			c8.149,31.472,46.459,59.374,58.466,67.469V197.5c0,5.943-0.406,12.083-1.242,18.77l-0.037,0.358
			c-5.226,37.115-25.136,67.139-54.667,82.41l-1.03,0.533l-0.066,0.066C274.213,306.514,258.922,310,242.5,310
			c-16.408,0-31.687-3.48-45.458-10.363l-1.097-0.599C166.455,283.788,146.558,253.823,141.3,216.777z M194.966,345.642
			l16.857,3.372l-7.646,19.116l15.119,25.803l-5.552,16.324l-52.697-41.615C171.13,362.924,186.144,353.81,194.966,345.642z
			 M425,470H60v-17.41c0.055-1.492,2.697-48.517,86.021-76.703l96.479,76.165l29.748-23.467l66.746-52.71
			c24.982,8.34,56.865,23.316,74.637,48.609c10.718,15.254,11.344,27.458,11.369,28.096L425,470L425,470z"/>
		<path style="fill:#231F20;" d="M227.803,242.803c4.699-4.699,7.803-7.803,14.697-7.803s9.998,3.104,14.697,7.803
			C262.631,248.237,269.394,255,282.5,255h5v-15h-5c-6.894,0-9.998-3.104-14.697-7.803c-4.284-4.284-9.409-9.381-17.803-11.351
			V187.5h-15v33.345c-8.394,1.971-13.519,7.067-17.803,11.351c-4.699,4.699-7.803,7.803-14.697,7.803h-5v15h5
			C215.606,255,222.369,248.237,227.803,242.803z"/>
	</g>
</g>
<g>
</g>
<g>
</g>
<g>
</g>
<g>
</g>
<g>
</g>
<g>
</g>
<g>
</g>
<g>
</g>
<g>
</g>
<g>
</g>
<g>
</g>
<g>
</g>
<g>
</g>
<g>
</g>
<g>
</g>
</svg>
