<?xml version="1.0" encoding="iso-8859-1"?>
<!-- Generator: Adobe Illustrator 19.0.0, SVG Export Plug-In . SVG Version: 6.00 Build 0)  -->
<svg version="1.1" id="Layer_1" xmlns="http://www.w3.org/2000/svg" xmlns:xlink="http://www.w3.org/1999/xlink" x="0px" y="0px"
	 viewBox="0 0 483.199 483.199" style="enable-background:new 0 0 483.199 483.199;" xml:space="preserve">
<g>
	<g>
		<path style="fill:#E7ECED;" d="M431.6,450.699c0,0,0,11,0,25h-70c0-56.6-76.9-102.6-88.5-109.1c11.6-14.1,18.5-30.9,18.5-30.9
			c10.9,12.2,45,30,45,30C431.299,395.699,431.6,450.699,431.6,450.699z"/>
		<path style="fill:#E7ECED;" d="M191.6,335.699c0,0,6.9,16.8,18.5,30.9c-11.6,6.5-88.5,52.5-88.5,109.1h-70c0-14,0-25,0-25
			s0.9-54.7,95-85C146.6,365.699,180.699,347.9,191.6,335.699z"/>
		<path style="fill:#414042;" d="M361.6,475.699h-240c0-56.6,76.9-102.6,88.5-109.1c8.3,10.3,19.1,19.1,31.5,19.1
			s23.2-8.8,31.5-19.1C284.7,373.099,361.6,419.099,361.6,475.699z"/>
		<path style="fill:#A18369;" d="M361.6,55.699l-10,85c0,0-30.8-55-110-55s-110,55-110,55l-10-85c0,0,36.2-72.1,120-40
			C325.4-16.401,361.6,55.699,361.6,55.699z"/>
		<path style="fill:#FFD7A3;" d="M273.1,366.599c-8.3,10.3-19.1,19.1-31.5,19.1s-23.2-8.8-31.5-19.1c-11.6-14.1-18.5-30.9-18.5-30.9
			v-31.8c14.6,7.6,31.4,11.8,50,11.8s35.4-4.2,50-11.8v31.8C291.6,335.699,284.7,352.499,273.1,366.599z"/>
		<path style="fill:#FFD7A3;" d="M131.6,195.699c0,6.7,0.4,13.3,1.3,19.7c-15.5-2.1-31.3-16.9-31.3-29.7c0-13.8,13.4-20,30-20
			V195.699z"/>
		<path style="fill:#FFD7A3;" d="M351.6,165.699c16.6,0,30,6.2,30,20c0,12.8-15.8,27.6-31.3,29.7c0.9-6.4,1.3-13,1.3-19.7V165.699z"
			/>
		<path style="fill:#FFE1B2;" d="M351.6,165.699v30c0,6.7-0.4,13.3-1.3,19.7c-5.4,39.1-26.6,71.9-58.7,88.5
			c-14.6,7.6-31.4,11.8-50,11.8s-35.4-4.2-50-11.8c-32.1-16.6-53.3-49.4-58.7-88.5c-0.9-6.4-1.3-13-1.3-19.7v-30v-25
			c0,0,30.8-55,110-55s110,55,110,55V165.699z"/>
	</g>
	<g>
		<path style="fill:#231F20;" d="M339.5,358.752c-8.932-4.706-30.926-17.169-40.4-26.111v-24.3
			c30.386-17.373,51.164-48.544,57.804-86.697c17.213-4.929,32.196-21.085,32.196-35.946c0-15.044-11.308-25.026-30-27.094v-17.47
			l10.211-86.792l-1.009-2.009c-0.403-0.804-10.117-19.848-30.904-34.766c-18.938-13.588-50.81-26.15-95.798-9.87
			c-44.986-16.277-76.861-3.719-95.798,9.872c-20.787,14.918-30.501,33.962-30.905,34.766l-1.009,2.009L124.1,141.14v17.465
			c-18.692,2.068-30,12.051-30,27.094c0,14.861,14.983,31.017,32.196,35.946c6.647,38.168,27.428,69.336,57.804,86.697v24.299
			c-9.48,8.947-31.493,21.42-40.416,26.119c-97.483,31.626-99.543,89.368-99.583,91.816l-0.001,32.623h395v-32.541
			C439.086,448.196,437.645,390.089,339.5,358.752z M241.6,323.199c15.079,0,29.324-2.595,42.5-7.701v18.643
			c-1.806,4.045-7.874,16.853-16.84,27.752c-5.994,7.438-15.312,16.306-25.66,16.306s-19.666-8.867-25.708-16.364
			c-8.928-10.853-14.989-23.655-16.792-27.693v-18.645C212.281,320.605,226.523,323.199,241.6,323.199z M208.529,376.241
			c10.473,11.255,21.574,16.958,33.069,16.958c11.508,0,22.621-5.717,33.071-16.957c17.611,10.796,73.048,48.013,78.922,91.957
			H129.606C135.48,424.253,190.921,387.034,208.529,376.241z M374.1,185.699c0,6.126-6.627,14.466-15.266,19.07
			c0.165-2.964,0.266-31.088,0.266-31.088C372.467,175.556,374.1,182.467,374.1,185.699z M154.548,29.755
			c23.733-17.032,52.119-19.406,84.369-7.052l2.683,1.027l2.683-1.027c32.024-12.268,60.249-10.008,83.895,6.713
			c14.477,10.239,22.911,23.108,25.69,27.816l-7.558,64.252c-4.02-4.382-9.118-9.294-15.392-14.195
			c-16.986-13.271-46.271-29.09-89.317-29.09s-72.331,15.819-89.317,29.09c-6.274,4.901-11.372,9.813-15.392,14.195l-7.562-64.264
			C132.057,52.57,140.255,40.013,154.548,29.755z M109.1,185.699c0-3.232,1.633-10.144,15-12.018c0,0,0.101,28.125,0.266,31.088
			C115.727,200.165,109.1,191.825,109.1,185.699z M140.326,214.356c-0.814-5.79-1.227-12.066-1.227-18.656v-52.862
			c2.493-3.808,9.875-14.054,22.972-24.158c21.915-16.907,48.672-25.479,79.528-25.479s57.613,8.572,79.527,25.479
			c13.099,10.104,20.479,20.351,22.973,24.158V195.7c0,6.587-0.413,12.863-1.229,18.674c-5.158,37.347-25.102,67.549-54.733,82.874
			c-13.962,7.268-29.619,10.952-46.537,10.952c-16.917,0-32.575-3.685-46.555-10.962
			C165.429,281.923,145.486,251.72,140.326,214.356z M59.099,450.79c0.056-1.515,2.773-49.93,89.799-77.952
			c0,0,26.072-13.62,40.255-24.818c2.413,4.642,5.762,10.496,9.905,16.408c-21.716,13.43-79.197,53.468-84.546,103.772H59.099
			V450.79z M424.1,468.199h-55.414c-5.349-50.304-62.835-90.346-84.549-103.774c4.147-5.918,7.496-11.768,9.907-16.407
			c14.184,11.198,40.291,24.83,40.291,24.83c25.456,8.064,59.721,23.257,78.396,49.836c10.718,15.254,11.344,27.458,11.368,28.096
			L424.1,468.199L424.1,468.199z"/>
		<path style="fill:#231F20;" d="M241.6,233.199h21v-15h-13.5v-32.5h-15v40C234.1,229.842,237.457,233.199,241.6,233.199z"/>
	</g>
</g>
<g>
</g>
<g>
</g>
<g>
</g>
<g>
</g>
<g>
</g>
<g>
</g>
<g>
</g>
<g>
</g>
<g>
</g>
<g>
</g>
<g>
</g>
<g>
</g>
<g>
</g>
<g>
</g>
<g>
</g>
</svg>
