<?xml version="1.0" encoding="iso-8859-1"?>
<!-- Generator: Adobe Illustrator 19.0.0, SVG Export Plug-In . SVG Version: 6.00 Build 0)  -->
<svg version="1.1" id="Layer_1" xmlns="http://www.w3.org/2000/svg" xmlns:xlink="http://www.w3.org/1999/xlink" x="0px" y="0px"
	 viewBox="0 0 475 475" style="enable-background:new 0 0 475 475;" xml:space="preserve">
<g>
	<g>
		<path style="fill:#AFB6BB;" d="M332.5,357.5l-95,45l-95-45c0,0,34.1-17.8,45-29.9c1.8,2,21.9,24.9,50,24.9c29.4,0,50-25,50-25
			C298.4,339.7,332.5,357.5,332.5,357.5z"/>
		<path style="fill:#FFD248;" d="M427.5,442.5c0,0,0,11,0,25h-190v-65l95-45C427.2,387.5,427.5,442.5,427.5,442.5z"/>
		<path style="fill:#FFD248;" d="M237.5,402.5v65h-190c0-14,0-25,0-25s0.9-54.7,95-85L237.5,402.5z"/>
		<path style="fill:#9B8579;" d="M232.5,97.6c-0.2,29.9-105,34.9-105,34.9s-5.2-125,110-125c115,0,110,125,110,125
			C281.9,132.5,232.5,97.6,232.5,97.6z"/>
		<path style="fill:#FFD7A3;" d="M347.5,157.5c16.6,0,30,6.2,30,20c0,12.8-15.8,27.6-31.3,29.7c0.8-6.4,1.3-13,1.3-19.7V157.5z"/>
		<path style="fill:#FFE1B2;" d="M346.2,207.2v0.1c-5.4,39.1-26.6,71.8-58.7,88.4c-0.2,0.2-0.5,0.3-0.7,0.4
			c-14.4,7.3-31,11.4-49.3,11.4s-34.9-4.1-49.3-11.4c-0.2-0.1-0.5-0.2-0.7-0.4c-32.1-16.6-53.3-49.3-58.7-88.4v-0.1
			c-0.8-6.4-1.3-13-1.3-19.7v-30v-25c0,0,104.8-5,105-34.9c0,0,49.4,34.9,115,34.9v25v30C347.5,194.2,347,200.8,346.2,207.2z"/>
		<path style="fill:#FFD7A3;" d="M287.5,295.7v31.8c0,0-20.6,25-50,25c-28.1,0-48.2-22.9-50-24.9v-0.1v-31.8
			c0.2,0.2,0.5,0.3,0.7,0.4c14.4,7.3,31,11.4,49.3,11.4s34.9-4.1,49.3-11.4C287,296,287.3,295.9,287.5,295.7z"/>
		<path style="fill:#FFD7A3;" d="M127.5,187.5c0,6.7,0.5,13.3,1.3,19.7c-15.5-2.1-31.3-16.9-31.3-29.7c0-13.8,13.4-20,30-20V187.5z"
			/>
	</g>
	<g>
		<path style="fill:#231F20;" d="M335.401,350.552c-8.933-4.705-30.927-17.168-40.401-26.11v-24.294
			c30.419-17.386,51.203-48.562,57.822-86.708C370.028,208.505,385,192.356,385,177.5c0-15.043-11.308-25.026-30-27.094v-17.764
			c0.023-0.672,0-7.641,0-7.641h-0.055c-0.648-17.863-5.382-62.292-35.193-93.318C299.554,10.66,271.88,0,237.5,0
			c-34.472,0-62.196,10.681-82.402,31.745c-29.956,31.228-34.491,75.983-35.066,93.604L120,125.351c0,0-0.025,6.593,0,7.295v17.76
			c-18.692,2.068-30,12.051-30,27.094c0,14.856,14.972,31.005,32.178,35.94c6.619,38.146,27.405,69.322,57.822,86.708v24.376
			c-9.496,8.89-31.495,21.339-40.416,26.036c-97.483,31.626-99.543,89.369-99.583,91.816L40,475h395v-32.541
			C434.986,439.996,433.545,381.89,335.401,350.552z M237.5,394.201l-78.56-37.212c8.859-5.117,20.303-12.204,28.349-18.918
			C196.536,346.697,214.527,360,237.5,360c23.473,0,41.608-13.82,50.254-21.96c8.05,6.745,19.47,13.832,28.312,18.947L237.5,394.201
			z M280,324.611C274.87,329.974,258.613,345,237.5,345c-20.268,0-36.085-13.759-42.5-20.356v-17.331
			c13.219,5.099,27.465,7.687,42.5,7.687c15.043,0,29.295-2.59,42.5-7.685V324.611z M370,177.5c0,6.131-6.637,14.479-15.286,19.081
			c0.185-3.084,0.286-31.099,0.286-31.099C368.367,167.356,370,174.268,370,177.5z M165.923,42.129
			C183.191,24.127,207.273,15,237.5,15c30.104,0,54.117,9.087,71.373,27.009c25.716,26.708,30.261,66.513,31.013,82.822
			c-58.537-2.513-102.607-33.039-103.064-33.36l-11.725-8.284L225,97.55c-0.04,6.042-12.237,14.816-46.346,21.32
			c-16.864,3.215-33.909,4.86-43.549,5.607C135.854,108.007,140.402,68.733,165.923,42.129z M105,177.5
			c0-3.232,1.633-10.144,15-12.018c0,0,0.101,28.014,0.286,31.099C111.637,191.979,105,183.631,105,177.5z M136.3,206.777
			l-0.058-0.508c-0.835-6.687-1.242-12.827-1.242-18.77v-47.963c9.694-0.716,27.888-2.399,46.326-5.906
			c29.777-5.663,48.011-13.775,55.178-24.628C252.799,118.604,291.405,138,340,139.856V187.5c0,5.944-0.406,12.084-1.242,18.769
			l-0.058,0.463v0.045c-5.257,37.045-25.154,67.01-54.645,82.261l-1.03,0.533l-0.066,0.066C269.213,296.514,253.922,300,237.5,300
			c-16.408,0-31.687-3.48-45.458-10.363l-1.097-0.599C161.455,273.787,141.558,243.823,136.3,206.777z M55,442.591
			c0.056-1.498,2.727-48.88,87.003-77.028L230,407.246V460H55V442.591z M420,460H245v-52.754l88.021-41.694
			c25.121,8.274,57.608,23.312,75.61,48.934c10.718,15.254,11.344,27.458,11.369,28.096L420,460L420,460z"/>
		<path style="fill:#231F20;" d="M237.5,225h20v-15H245v-32.5h-15v40C230,221.642,233.358,225,237.5,225z"/>
	</g>
</g>
<g>
</g>
<g>
</g>
<g>
</g>
<g>
</g>
<g>
</g>
<g>
</g>
<g>
</g>
<g>
</g>
<g>
</g>
<g>
</g>
<g>
</g>
<g>
</g>
<g>
</g>
<g>
</g>
<g>
</g>
</svg>
