<?xml version="1.0" encoding="iso-8859-1"?>
<!-- Generator: Adobe Illustrator 19.0.0, SVG Export Plug-In . SVG Version: 6.00 Build 0)  -->
<svg version="1.1" id="Layer_1" xmlns="http://www.w3.org/2000/svg" xmlns:xlink="http://www.w3.org/1999/xlink" x="0px" y="0px"
	 viewBox="0 0 485.006 485.006" style="enable-background:new 0 0 485.006 485.006;" xml:space="preserve">
<g>
	<g>
		<path style="fill:#8C6AAB;" d="M402.302,401.206c-13.7,10.4-49.8,41.1-49.8,76.3h-220c0-35-35.8-65.6-49.6-76
			c7.1-6.2,15.8-12.2,26.5-18c10.7,5.5,64.9,34,133.1,34s123.7-28.7,133.5-34.1C386.702,389.106,395.302,395.206,402.302,401.206z"
			/>
		<path style="fill:#FFE1B2;" d="M432.502,452.506c0,0,0,11,0,25h-80c0-35.2,36.1-65.9,49.8-76.3h0.1
			C432.402,427.006,432.502,452.506,432.502,452.506z"/>
		<path style="fill:#FFE1B2;" d="M132.502,477.506h-80c0-14,0-25,0-25s0.4-25.4,30.4-51
			C96.702,411.906,132.502,442.506,132.502,477.506z"/>
		<path style="fill:#FFE1B2;" d="M304.402,347.506c14.2,10.1,33.1,20,33.1,20c15.1,4.8,27.8,10.2,38.5,15.9
			c-9.8,5.4-65.3,34.1-133.5,34.1s-122.4-28.5-133.1-34c10.6-5.7,23.2-11.2,38.1-16c0,0,18.9-9.9,33.1-20c4.9-3.4,9.1-6.9,11.9-10
			c0,0,20.6,25,50,25s50-25,50-25C295.302,340.606,299.502,344.106,304.402,347.506z"/>
		<path style="fill:#FFD7A3;" d="M192.502,305.706c14.6,7.6,31.4,11.8,50,11.8c18.6,0,35.4-4.2,50-11.8v31.8c0,0-20.6,25-50,25
			s-50-25-50-25L192.502,305.706L192.502,305.706z"/>
		<path style="fill:#FFE1B2;" d="M292.502,305.706c-14.6,7.6-31.4,11.8-50,11.8s-35.4-4.2-50-11.8c-37.4-19.3-60-60.5-60-108.2v-55
			c0,0,105-5,105-35c0,0,49.4,35,115,35v55C352.502,245.206,329.902,286.406,292.502,305.706z"/>
		<path style="fill:#726658;" d="M392.502,157.506c0,0,6.2,108.8-30,145c0,0,2.8,14.7,25,45h-83.1c-4.9-3.4-9.1-6.9-11.9-10v-31.8
			c37.4-19.3,60-60.5,60-108.2v-55c-65.6,0-115-35-115-35c0,30-105,35-105,35v55c0,47.7,22.6,88.9,60,108.2v31.8
			c-2.8,3.1-7,6.6-11.9,10h-83.1c22.2-30.3,25-45,25-45c-36.2-36.2-30-145-30-145c0-152.5,150-150,150-150
			S392.502,5.006,392.502,157.506z"/>
	</g>
	<g>
		<path style="fill:#231F20;" d="M407.292,395.52l-2.109-1.813h-0.151c-7.639-6.282-16.206-11.967-25.504-16.919
			c-11.54-6.147-24.694-11.604-39.108-16.223c-1.379-0.734-5.171-2.774-10.025-5.559h71.9l-8.743-11.933
			c-14.763-20.149-20.538-33.015-22.619-38.659c34.25-40.245,29.44-140.304,29.069-147.119
			c-0.042-47.393-14.125-85.251-41.862-112.529C312.525-0.095,246.74-0.065,242.502,0.005c-4.25-0.049-70.024-0.099-115.638,44.761
			c-27.737,27.278-41.821,65.14-41.862,112.532c-0.152,2.846-1.429,29.051,1.458,59.833c3.845,41.004,13.125,70.328,27.606,87.284
			c-2.098,5.693-7.879,18.549-22.613,38.658l-8.743,11.933h71.9c-4.866,2.791-8.669,4.837-10.038,5.565
			c-14.005,4.55-27.029,10.042-38.743,16.341c-10.938,5.929-20.051,12.126-27.794,18.889
			c-32.207,27.482-33.012,55.411-33.031,56.587l-0.001,32.618h395v-32.529C439.997,451.295,439.518,423.234,407.292,395.52z
			 M129.87,303.91l0.743-3.899l-2.807-2.808c-13.528-13.527-22.655-41.635-26.394-81.283c-2.906-30.823-1.437-57.72-1.422-57.987
			l0.012-0.426c0-43.266,12.546-77.568,37.29-101.956c41.583-40.985,104.461-40.555,105.085-40.545l0.125,0.002l0.117-0.002
			c0.621-0.009,63.516-0.436,105.094,40.545c24.744,24.388,37.29,58.69,37.29,101.956l0.012,0.427
			c0.015,0.267,1.484,26.992-1.404,57.798c-3.728,39.749-12.86,67.921-26.411,81.472l-2.807,2.808l0.743,3.899
			c0.275,1.442,2.87,13.197,17.995,36.097h-66.328c-2.635-1.921-4.956-3.82-6.799-5.564v-24.287
			c17.821-10.188,32.66-25.406,43.088-44.27c11.064-20.011,16.912-43.655,16.912-68.379v-62.5h-7.5
			c-62.285,0-110.194-33.288-110.664-33.62l-11.836-8.386v14.506c0,6.053-12.156,14.843-46.272,21.357
			c-25.436,4.857-51.327,6.139-51.585,6.151l-7.143,0.342v62.149c0,24.724,5.848,48.368,16.912,68.379
			c10.429,18.864,25.267,34.082,43.088,44.27v24.287c-1.836,1.736-4.151,3.631-6.8,5.564h-66.327
			C127,317.107,129.595,305.352,129.87,303.91z M289.039,299.054c-13.962,7.268-29.62,10.952-46.537,10.952
			s-32.575-3.685-46.537-10.952l-0.023-0.013c-16.986-8.766-31.129-22.74-40.901-40.414c-9.838-17.795-15.039-38.93-15.039-61.121
			v-47.963c9.708-0.716,27.939-2.402,46.403-5.92c29.784-5.673,48.007-13.803,55.14-24.678
			c16.324,9.64,54.906,29.057,103.457,30.916v47.645c0,22.191-5.2,43.326-15.039,61.121
			C320.192,276.301,306.049,290.276,289.039,299.054z M200.002,317.304c13.182,5.108,27.424,7.702,42.5,7.702
			c15.08,0,29.326-2.595,42.5-7.701v17.312c-5.13,5.363-21.387,20.389-42.5,20.389c-20.977,0-37.346-15.055-42.5-20.404
			L200.002,317.304L200.002,317.304z M149.802,374.645c0,0,20.698-10.75,35.076-20.977c2.706-1.878,5.186-3.766,7.381-5.612
			c8.65,8.142,26.78,21.95,50.243,21.95c23.463,0,41.592-13.808,50.243-21.95c2.184,1.839,4.643,3.711,7.311,5.562
			c14.449,10.277,35.175,21.036,35.175,21.036c8.421,2.677,16.361,5.649,23.756,8.877c-21.862,10.062-65.363,26.476-116.484,26.476
			c-38.255,0-78.077-9.136-115.994-26.51C133.857,380.237,141.644,377.273,149.802,374.645z M109.566,392
			c43.012,21.599,88.903,33.007,132.937,33.007c64.068,0,116.829-24.445,133.447-33.071c5.061,2.868,9.843,5.98,14.324,9.294
			c-16.364,13.753-41.087,39.059-44.791,68.777H139.515c-1.798-14.494-8.755-29.398-20.784-44.414
			c-8.022-10.013-16.89-18.282-23.816-24.096C99.34,398.222,104.229,395.044,109.566,392z M60.002,452.629
			c0.064-1.456,1.315-20.417,23.234-41.326c12.821,10.451,36.95,33.161,41.122,58.702H60.002V452.629z M425.002,470.006h-64.35
			c4.205-25.54,28.501-48.473,41.366-59.016c22.273,21.393,22.966,40.742,22.985,41.516L425.002,470.006L425.002,470.006z"/>
		<path style="fill:#231F20;" d="M250.002,207.506h-15v40c0,4.143,3.358,7.5,7.5,7.5h20v-15h-12.5L250.002,207.506L250.002,207.506z
			"/>
	</g>
</g>
<g>
</g>
<g>
</g>
<g>
</g>
<g>
</g>
<g>
</g>
<g>
</g>
<g>
</g>
<g>
</g>
<g>
</g>
<g>
</g>
<g>
</g>
<g>
</g>
<g>
</g>
<g>
</g>
<g>
</g>
</svg>
